<?xml version="1.0" standalone="no"?>
<!DOCTYPE svg PUBLIC "-//W3C//DTD SVG 20010904//EN"
 "http://www.w3.org/TR/2001/REC-SVG-20010904/DTD/svg10.dtd">
<svg version="1.0" xmlns="http://www.w3.org/2000/svg"
 width="196.000000pt" height="173.000000pt" viewBox="0 0 196.000000 173.000000"
 preserveAspectRatio="xMidYMid meet">
<metadata>
Created by potrace 1.10, written by Peter Selinger 2001-2011
</metadata>
<g transform="translate(0.000000,173.000000) scale(0.050000,-0.050000)"
fill="#000000" stroke="#000000" stroke-width="4">
<path d="M2085 3350 c-148 -41 -324 -135 -455 -241 l-112 -91 -94 31 c-820
270 -1220 -282 -686 -943 l101 -125 -37 -87 c-21 -48 -62 -177 -93 -286 -30
-112 -110 -313 -184 -463 -174 -355 -186 -505 -41 -505 133 0 896 377 896 443
0 11 7 15 16 9 29 -17 112 159 94 200 -14 34 -18 33 -36 -15 -39 -101 -954
-568 -954 -487 0 5 42 100 93 211 l94 201 75 -12 c159 -27 607 264 528 343
-39 39 -60 34 -134 -29 -171 -145 -421 -259 -390 -176 8 18 77 124 155 234
l142 200 69 -61 c38 -34 77 -61 87 -61 25 0 -11 118 -48 159 -41 45 -40 55 19
125 49 58 64 116 36 143 -7 8 -52 -24 -100 -71 l-86 -85 -43 43 -42 42 61 108
c34 59 72 152 84 206 18 79 48 126 146 231 68 73 165 181 216 240 l91 108 84
-38 c101 -45 101 -46 -2 -121 -101 -74 -113 -105 -47 -121 39 -10 74 4 149 59
120 88 123 88 211 5 49 -46 73 -58 81 -40 5 15 24 27 40 27 38 0 38 8 1 80
-36 70 -104 120 -162 120 -40 0 -268 94 -268 110 0 25 271 195 369 232 233 87
394 51 480 -107 l40 -72 -92 -98 c-50 -53 -102 -117 -115 -141 -37 -70 57 -58
128 16 73 77 84 75 74 -9 -6 -49 3 -81 32 -111 l39 -42 23 64 c12 35 22 120
22 189 l0 124 109 93 c348 298 376 148 83 -446 -108 -219 -119 -282 -51 -282
23 0 252 437 310 591 142 376 -75 512 -383 240 l-97 -85 -55 76 c-103 142
-285 200 -471 148z m-807 -372 c165 -28 173 -35 109 -109 -165 -190 -370 -500
-451 -684 -49 -111 -49 -111 -171 70 -354 526 -136 833 513 723z m-301 -1125
c8 -42 -110 -193 -150 -193 -26 0 -25 4 2 31 17 18 31 41 31 51 0 100 100 196
117 111z"/>
<path d="M3170 2594 c-100 -33 -370 -245 -329 -257 36 -10 99 -9 99 2 0 19
183 110 220 110 17 0 36 8 43 17 6 10 18 8 26 -4 11 -18 -17 -33 -35 -17 -3 3
-45 -24 -93 -60 -49 -36 -102 -65 -117 -65 -34 0 -176 -121 -169 -144 3 -9 -8
-16 -25 -16 -28 0 -65 -91 -45 -111 5 -5 42 17 83 49 161 128 560 309 702 318
l130 9 0 -74 c0 -164 -223 -427 -561 -661 l-82 -57 -83 97 c-46 53 -108 133
-138 177 l-54 80 12 -118 c7 -66 29 -158 49 -206 49 -114 49 -111 -42 -153
-44 -19 -95 -52 -114 -73 -18 -20 -40 -37 -49 -37 -9 0 -60 -28 -112 -62 l-96
-62 70 14 c104 19 260 71 343 112 87 44 97 31 97 -119 -1 -111 -14 -134 -80
-139 -158 -12 -403 -5 -486 14 -78 18 -106 17 -155 -9 -33 -17 -69 -25 -80
-19 -10 7 -19 2 -19 -10 0 -12 -15 -19 -33 -16 -24 4 -66 -53 -148 -204 -63
-116 -190 -344 -282 -508 -179 -319 -197 -366 -150 -384 46 -17 143 38 140 79
-2 19 55 136 126 259 71 123 188 341 260 484 73 143 136 264 140 269 4 5 50
-6 102 -25 175 -61 345 -79 507 -54 81 12 167 24 191 26 133 12 229 286 159
454 -9 22 25 56 121 119 511 336 731 817 421 920 -69 22 -238 2 -313 -39 -56
-29 -63 -25 -50 26 16 66 -25 94 -101 68z m-193 -1021 c28 -35 46 -229 23
-243 -11 -7 -20 5 -20 26 0 21 -23 62 -50 92 -40 44 -46 62 -29 93 14 27 14
39 0 39 -12 0 -21 8 -21 18 0 24 73 5 97 -25z"/>
<path d="M2198 2554 c-112 -75 -150 -264 -50 -250 31 4 44 22 48 71 14 144
284 173 284 31 0 -47 60 -74 93 -42 28 28 27 37 -1 92 -75 145 -240 189 -374
98z"/>
<path d="M1835 2497 c-30 -11 -50 -29 -44 -39 20 -32 102 -19 139 22 43 47 6
54 -95 17z"/>
<path d="M1361 2454 c-113 -56 -179 -232 -104 -273 46 -24 63 -9 63 53 0 160
244 197 297 45 26 -72 89 -75 99 -5 21 143 -205 257 -355 180z"/>
<path d="M2180 2005 c-945 -133 -859 -99 -780 -310 209 -558 1048 -472 1159
119 45 245 35 250 -379 191z m289 -140 c-76 -430 -558 -596 -860 -296 -91 90
-170 229 -133 232 8 1 217 32 464 68 592 87 545 87 529 -4z"/>
<path d="M1680 1120 c-22 -22 -40 -34 -40 -26 0 7 -17 -4 -38 -25 -107 -111
-216 -129 -190 -30 5 17 -5 1 -22 -36 -17 -36 -50 -86 -72 -110 -192 -205
-113 -327 89 -138 246 229 400 405 356 405 -24 0 -61 -18 -83 -40z"/>
<path d="M3 235 c-2 -190 2 -235 25 -235 21 0 26 19 19 75 -5 41 -17 147 -26
235 l-16 160 -2 -235z"/>
<path d="M3780 20 l-110 -13 125 -4 c72 -2 125 5 125 17 0 11 -7 19 -15 17 -8
-2 -64 -10 -125 -17z"/>
</g>
</svg>
